PathFileType	4	(X/Y/Z)	C:\Users\italobelli\Desktop\GitHub\PTbot_officialCBL\Personal_Results\FLX23_noisy2.trc
DataRate	CameraRate	NumFrames	NumMarkers	Units	OrigDataRate	OrigDataStartFrame	OrigNumFrames
106.533333	106.533333	34	9	m	106.533333	101	800
Frame#	Time		gu		centelbow		EpL		centpxt8		centijc7		ij		ts		aa		ai
			X1	Y1	Z1	X2	Y2	Z2	X3	Y3	Z3	X4	Y4	Z4	X5	Y5	Z5	X6	Y6	Z6	X7	Y7	Z7	X8	Y8	Z8	X9	Y9	Z9

101	0.93867	-0.074945	-0.018157	0.16708	-0.12889	-0.25653	0.20376	-0.11141	-0.25361	0.23074	-0.046816	-0.15316	-0.008669	-0.046816	0.031938	-0.008669	0	0	0	-0.13554	0.02674	0.054674	-0.10558	0.019492	0.16986	-0.15569	-0.084825	0.058289
102	0.94806	-0.074938	-0.018119	0.16709	-0.12892	-0.25657	0.20392	-0.11144	-0.25365	0.23089	-0.046816	-0.15316	-0.008669	-0.046816	0.031938	-0.008669	0	0	0	-0.13552	0.026751	0.054682	-0.10555	0.01952	0.16987	-0.15569	-0.08482	0.058322
103	0.95745	-0.074931	-0.018082	0.16711	-0.12895	-0.2566	0.20408	-0.11147	-0.25368	0.23104	-0.046816	-0.15316	-0.008669	-0.046816	0.031938	-0.008669	0	0	0	-0.1355	0.026762	0.054689	-0.10552	0.019547	0.16988	-0.1557	-0.084816	0.058355
104	0.96683	-0.074924	-0.018045	0.16712	-0.12897	-0.25664	0.20423	-0.11148	-0.25371	0.23119	-0.046816	-0.15316	-0.008669	-0.046816	0.031938	-0.008669	0	0	0	-0.13549	0.026771	0.054697	-0.10549	0.019574	0.16989	-0.1557	-0.084814	0.058387
105	0.97622	-0.074916	-0.018009	0.16713	-0.12897	-0.25668	0.20439	-0.11148	-0.25374	0.23134	-0.046816	-0.15316	-0.008669	-0.046816	0.031938	-0.008669	0	0	0	-0.13548	0.02678	0.054704	-0.10546	0.0196	0.1699	-0.15571	-0.084815	0.058419
106	0.98561	-0.074908	-0.017973	0.16714	-0.12897	-0.25671	0.20455	-0.11147	-0.25377	0.23148	-0.046816	-0.15316	-0.008669	-0.046816	0.031938	-0.008669	0	0	0	-0.13547	0.026787	0.054711	-0.10543	0.019626	0.16991	-0.15571	-0.084819	0.058451
107	0.99499	-0.0749	-0.017938	0.16715	-0.12896	-0.25674	0.20471	-0.11146	-0.2538	0.23162	-0.046816	-0.15316	-0.008669	-0.046816	0.031938	-0.008669	0	0	0	-0.13545	0.026794	0.054718	-0.10541	0.019652	0.16992	-0.15572	-0.084825	0.058482
108	1.0044	-0.074891	-0.017904	0.16716	-0.12892	-0.25677	0.20486	-0.11141	-0.25383	0.23177	-0.046816	-0.15316	-0.008669	-0.046816	0.031938	-0.008669	0	0	0	-0.13545	0.026799	0.054725	-0.10538	0.019677	0.16992	-0.15572	-0.084834	0.058513
109	1.0138	-0.074871	-0.017873	0.16717	-0.12877	-0.2568	0.20502	-0.11124	-0.25385	0.23191	-0.046816	-0.15316	-0.008669	-0.046816	0.031938	-0.008669	0	0	0	-0.13544	0.0268	0.054732	-0.10534	0.019701	0.16993	-0.15573	-0.084847	0.058546
110	1.0232	-0.074839	-0.017844	0.16716	-0.12848	-0.25683	0.20518	-0.11094	-0.25385	0.23205	-0.046816	-0.15316	-0.008669	-0.046816	0.031938	-0.008669	0	0	0	-0.13544	0.026797	0.054738	-0.1053	0.019726	0.16993	-0.15573	-0.084865	0.058583
111	1.0325	-0.074797	-0.017819	0.16716	-0.12806	-0.25684	0.20535	-0.1105	-0.25385	0.23219	-0.046816	-0.15316	-0.008669	-0.046816	0.031938	-0.008669	0	0	0	-0.13544	0.026789	0.054743	-0.10526	0.01975	0.16993	-0.15573	-0.084888	0.058623
112	1.0419	-0.074743	-0.017795	0.16714	-0.12751	-0.25686	0.20551	-0.10994	-0.25383	0.23234	-0.046816	-0.15316	-0.008669	-0.046816	0.031938	-0.008669	0	0	0	-0.13544	0.026778	0.054749	-0.10521	0.019774	0.16993	-0.15573	-0.084915	0.058666
113	1.0513	-0.074678	-0.017774	0.16712	-0.12684	-0.25687	0.20567	-0.10925	-0.25379	0.23248	-0.046816	-0.15316	-0.008669	-0.046816	0.031938	-0.008669	0	0	0	-0.13545	0.026762	0.054754	-0.10516	0.019799	0.16993	-0.15572	-0.084947	0.058712
114	1.0607	-0.074604	-0.017756	0.16709	-0.12605	-0.25687	0.20584	-0.10844	-0.25375	0.23262	-0.046816	-0.15316	-0.008669	-0.046816	0.031938	-0.008669	0	0	0	-0.13546	0.026742	0.054759	-0.1051	0.019823	0.16992	-0.15572	-0.084983	0.058762
115	1.0701	-0.074519	-0.01774	0.16706	-0.12514	-0.25687	0.20601	-0.10752	-0.25369	0.23276	-0.046816	-0.15316	-0.008669	-0.046816	0.031938	-0.008669	0	0	0	-0.13548	0.026718	0.054764	-0.10504	0.019847	0.16991	-0.15571	-0.085023	0.058814
116	1.0795	-0.074425	-0.017725	0.16702	-0.12412	-0.25686	0.20618	-0.10647	-0.25363	0.2329	-0.046816	-0.15316	-0.008669	-0.046816	0.031938	-0.008669	0	0	0	-0.1355	0.026691	0.054768	-0.10497	0.019872	0.1699	-0.1557	-0.085067	0.05887
117	1.0889	-0.074323	-0.017713	0.16698	-0.12299	-0.25686	0.20635	-0.10532	-0.25355	0.23305	-0.046816	-0.15316	-0.008669	-0.046816	0.031938	-0.008669	0	0	0	-0.13552	0.02666	0.054772	-0.1049	0.019896	0.16989	-0.15569	-0.085115	0.058928
118	1.0982	-0.074211	-0.017703	0.16693	-0.12176	-0.25684	0.20652	-0.10407	-0.25346	0.23319	-0.046816	-0.15316	-0.008669	-0.046816	0.031938	-0.008669	0	0	0	-0.13554	0.026625	0.054776	-0.10483	0.019921	0.16987	-0.15568	-0.085166	0.05899
119	1.1076	-0.074092	-0.017694	0.16688	-0.12042	-0.25682	0.20669	-0.10271	-0.25336	0.23333	-0.046816	-0.15316	-0.008669	-0.046816	0.031938	-0.008669	0	0	0	-0.13557	0.026587	0.05478	-0.10476	0.019946	0.16986	-0.15567	-0.085221	0.059055
120	1.117	-0.073964	-0.017687	0.16682	-0.11898	-0.2568	0.20686	-0.10125	-0.25325	0.23347	-0.046816	-0.15316	-0.008669	-0.046816	0.031938	-0.008669	0	0	0	-0.1356	0.026546	0.054783	-0.10468	0.019971	0.16984	-0.15566	-0.085279	0.059122
121	1.1264	-0.073829	-0.017681	0.16676	-0.11745	-0.25678	0.20704	-0.099699	-0.25312	0.23361	-0.046816	-0.15316	-0.008669	-0.046816	0.031938	-0.008669	0	0	0	-0.13563	0.026501	0.054787	-0.10459	0.019997	0.16982	-0.15565	-0.085341	0.059193
122	1.1358	-0.073687	-0.017677	0.16669	-0.11583	-0.25675	0.20721	-0.098056	-0.25299	0.23376	-0.046816	-0.15316	-0.008669	-0.046816	0.031938	-0.008669	0	0	0	-0.13566	0.026454	0.05479	-0.10451	0.020023	0.16979	-0.15563	-0.085405	0.059266
123	1.1452	-0.073539	-0.017674	0.16662	-0.11412	-0.25671	0.20739	-0.096325	-0.25284	0.2339	-0.046816	-0.15316	-0.008669	-0.046816	0.031938	-0.008669	0	0	0	-0.1357	0.026403	0.054792	-0.10442	0.020049	0.16977	-0.15561	-0.085473	0.059342
124	1.1546	-0.073384	-0.017672	0.16654	-0.11233	-0.25668	0.20757	-0.094511	-0.25269	0.23404	-0.046816	-0.15316	-0.008669	-0.046816	0.031938	-0.008669	0	0	0	-0.13574	0.026349	0.054795	-0.10433	0.020076	0.16974	-0.15559	-0.085543	0.059421
125	1.164	-0.073223	-0.017671	0.16646	-0.11045	-0.25664	0.20775	-0.092617	-0.25252	0.23418	-0.046816	-0.15316	-0.008669	-0.046816	0.031938	-0.008669	0	0	0	-0.13578	0.026293	0.054797	-0.10424	0.020104	0.16972	-0.15557	-0.085616	0.059503
126	1.1733	-0.073057	-0.01767	0.16638	-0.1085	-0.25659	0.20793	-0.090647	-0.25235	0.23432	-0.046816	-0.15316	-0.008669	-0.046816	0.031938	-0.008669	0	0	0	-0.13583	0.026234	0.054799	-0.10415	0.020132	0.16969	-0.15555	-0.085691	0.059588
127	1.1827	-0.072886	-0.017671	0.16629	-0.10648	-0.25654	0.20811	-0.088605	-0.25216	0.23446	-0.046816	-0.15316	-0.008669	-0.046816	0.031938	-0.008669	0	0	0	-0.13588	0.026172	0.054801	-0.10405	0.020161	0.16966	-0.15553	-0.085769	0.059675
128	1.1921	-0.07271	-0.017672	0.1662	-0.10439	-0.25649	0.20829	-0.086494	-0.25197	0.2346	-0.046816	-0.15316	-0.008669	-0.046816	0.031938	-0.008669	0	0	0	-0.13593	0.026108	0.054803	-0.10396	0.02019	0.16962	-0.15551	-0.085848	0.059766
129	1.2015	-0.072529	-0.017673	0.1661	-0.10223	-0.25644	0.20847	-0.084318	-0.25176	0.23474	-0.046816	-0.15316	-0.008669	-0.046816	0.031938	-0.008669	0	0	0	-0.13598	0.026041	0.054805	-0.10386	0.020221	0.16959	-0.15549	-0.08593	0.059858
130	1.2109	-0.072345	-0.017675	0.166	-0.10001	-0.25638	0.20866	-0.082082	-0.25155	0.23488	-0.046816	-0.15316	-0.008669	-0.046816	0.031938	-0.008669	0	0	0	-0.13604	0.025972	0.054806	-0.10376	0.020252	0.16955	-0.15546	-0.086014	0.059954
131	1.2203	-0.072157	-0.017677	0.1659	-0.097729	-0.25632	0.20884	-0.079788	-0.25132	0.23502	-0.046816	-0.15316	-0.008669	-0.046816	0.031938	-0.008669	0	0	0	-0.1361	0.025901	0.054807	-0.10366	0.020284	0.16952	-0.15543	-0.0861	0.060052
132	1.2297	-0.071967	-0.01768	0.1658	-0.095395	-0.25625	0.20903	-0.077441	-0.25109	0.23516	-0.046816	-0.15316	-0.008669	-0.046816	0.031938	-0.008669	0	0	0	-0.13616	0.025828	0.054808	-0.10356	0.020316	0.16948	-0.15541	-0.086187	0.060153
133	1.239	-0.071773	-0.017682	0.16569	-0.093009	-0.25619	0.20922	-0.075044	-0.25084	0.2353	-0.046816	-0.15316	-0.008669	-0.046816	0.031938	-0.008669	0	0	0	-0.13622	0.025753	0.054809	-0.10346	0.02035	0.16944	-0.15538	-0.086275	0.060256
134	1.2484	-0.071577	-0.017684	0.16558	-0.090575	-0.25611	0.2094	-0.072601	-0.25059	0.23544	-0.046816	-0.15316	-0.008669	-0.046816	0.031938	-0.008669	0	0	0	-0.13629	0.025676	0.05481	-0.10336	0.020385	0.1694	-0.15535	-0.086365	0.060362
